<svg xmlns="http://www.w3.org/2000/svg" width="512" height="512" viewBox="0 0 512 512"><defs><linearGradient id="g" x1="0" y1="0" x2="1" y2="1"><stop stop-color="#ffbf28"/><stop offset="1" stop-color="#cc6c00"/></linearGradient><filter id="glow"><feGaussianBlur stdDeviation="7" result="b"/><feMerge><feMergeNode in="b"/><feMergeNode in="SourceGraphic"/></feMerge></filter></defs><ellipse cx="256" cy="430" rx="150" ry="26" fill="#0b2440" opacity=".18"/><g fill="#fff7b3" filter="url(#glow)"><path d="M88 96l9 22 22 9-22 9-9 22-9-22-22-9 22-9z"/><path d="M430 148l6 15 15 6-15 6-6 15-6-15-15-6 15-6z"/></g><path d="M92 340L120 160l90 82 48-120 54 120 86-82 28 180z" fill="url(#g)" stroke="#ffec89" stroke-width="12"/><rect x="100" y="330" width="320" height="70" rx="24" fill="#d58c00" stroke="#fff1a8" stroke-width="10"/><circle cx="180" cy="330" r="18" fill="#61eaff"/><circle cx="256" cy="320" r="22" fill="#ff4dc8"/><circle cx="335" cy="330" r="18" fill="#61eaff"/></svg>