<svg xmlns="http://www.w3.org/2000/svg" width="512" height="512" viewBox="0 0 512 512"><defs><linearGradient id="g" x1="0" y1="0" x2="1" y2="1"><stop stop-color="#ff4dc8"/><stop offset="1" stop-color="#6334ff"/></linearGradient><filter id="glow"><feGaussianBlur stdDeviation="7" result="b"/><feMerge><feMergeNode in="b"/><feMergeNode in="SourceGraphic"/></feMerge></filter></defs><ellipse cx="256" cy="430" rx="150" ry="26" fill="#0b2440" opacity=".18"/><g fill="#fff7b3" filter="url(#glow)"><path d="M88 96l9 22 22 9-22 9-9 22-9-22-22-9 22-9z"/><path d="M430 148l6 15 15 6-15 6-6 15-6-15-15-6 15-6z"/></g><path d="M250 330C170 410 70 390 55 260c70 30 110-70 190-135-18 85 20 135 5 205z" fill="url(#g)" stroke="#fff" stroke-width="9"/><path d="M262 330c80 80 180 60 195-70-70 30-110-70-190-135 18 85-20 135-5 205z" fill="url(#g)" stroke="#fff" stroke-width="9"/><path d="M132 260l72-45M380 260l-72-45" stroke="#dffbff" stroke-width="12" stroke-linecap="round"/></svg>