<svg xmlns="http://www.w3.org/2000/svg" width="512" height="512" viewBox="0 0 512 512"><defs><linearGradient id="g" x1="0" y1="0" x2="1" y2="1"><stop stop-color="#ffbf28"/><stop offset="1" stop-color="#cc6c00"/></linearGradient><filter id="glow"><feGaussianBlur stdDeviation="7" result="b"/><feMerge><feMergeNode in="b"/><feMergeNode in="SourceGraphic"/></feMerge></filter></defs><ellipse cx="256" cy="430" rx="150" ry="26" fill="#0b2440" opacity=".18"/><g fill="#fff7b3" filter="url(#glow)"><path d="M88 96l9 22 22 9-22 9-9 22-9-22-22-9 22-9z"/><path d="M430 148l6 15 15 6-15 6-6 15-6-15-15-6 15-6z"/></g><path d="M176 130h160l60 300H116z" fill="url(#g)" stroke="#e7eaff" stroke-width="10"/><path d="M180 130c15-70 137-70 152 0l-76 90z" fill="#1d2750" stroke="#bf8cff" stroke-width="11"/><path d="M256 220v190" stroke="#ffd85d" stroke-width="12"/><circle cx="256" cy="255" r="20" fill="#73efff"/></svg>