<svg xmlns="http://www.w3.org/2000/svg" width="512" height="512" viewBox="0 0 512 512"><defs><linearGradient id="g" x1="0" y1="0" x2="1" y2="1"><stop stop-color="#ff4dc8"/><stop offset="1" stop-color="#6334ff"/></linearGradient><filter id="glow"><feGaussianBlur stdDeviation="7" result="b"/><feMerge><feMergeNode in="b"/><feMergeNode in="SourceGraphic"/></feMerge></filter></defs><ellipse cx="256" cy="430" rx="150" ry="26" fill="#0b2440" opacity=".18"/><g fill="#fff7b3" filter="url(#glow)"><path d="M88 96l9 22 22 9-22 9-9 22-9-22-22-9 22-9z"/><path d="M430 148l6 15 15 6-15 6-6 15-6-15-15-6 15-6z"/></g><path d="M150 120h212v260H150z" fill="#1c2c58" stroke="#ffd253" stroke-width="14"/><path d="M120 210h272v190H120z" fill="url(#g)" stroke="#ffdf70" stroke-width="14"/><path d="M155 400v65M357 400v65" stroke="#ffcf3f" stroke-width="24"/><circle cx="256" cy="245" r="58" fill="#101f43" stroke="#ffdf70" stroke-width="12"/><path d="M256 188l16 35 38 5-28 26 7 38-33-18-33 18 7-38-28-26 38-5z" fill="#ffdf70"/></svg>